<?xml version="1.0" encoding="UTF-8" standalone="no"?>
<svg
   xmlns:dc="http://purl.org/dc/elements/1.1/"
   xmlns:cc="http://creativecommons.org/ns#"
   xmlns:rdf="http://www.w3.org/1999/02/22-rdf-syntax-ns#"
   xmlns:svg="http://www.w3.org/2000/svg"
   xmlns="http://www.w3.org/2000/svg"
   xmlns:sodipodi="http://sodipodi.sourceforge.net/DTD/sodipodi-0.dtd"
   xmlns:inkscape="http://www.inkscape.org/namespaces/inkscape"
   sodipodi:docname="icon.svg"
   inkscape:version="1.0 (6e3e5246a0, 2020-05-07)"
   id="svg8"
   version="1.1"
   viewBox="0 0 25.399999 25.400001"
   height="96"
   width="96">
  <defs
     id="defs2" />
  <sodipodi:namedview
     inkscape:window-maximized="0"
     inkscape:window-y="23"
     inkscape:window-x="26"
     inkscape:window-height="1043"
     inkscape:window-width="1637"
     units="px"
     showgrid="false"
     inkscape:document-rotation="0"
     inkscape:current-layer="layer1"
     inkscape:document-units="mm"
     inkscape:cy="19.824837"
     inkscape:cx="-26.17077"
     inkscape:zoom="1.979899"
     inkscape:pageshadow="2"
     inkscape:pageopacity="0.0"
     borderopacity="1.0"
     bordercolor="#666666"
     pagecolor="#ffffff"
     id="base" />
  <metadata
     id="metadata5">
    <rdf:RDF>
      <cc:Work
         rdf:about="">
        <dc:format>image/svg+xml</dc:format>
        <dc:type
           rdf:resource="http://purl.org/dc/dcmitype/StillImage" />
        <dc:title></dc:title>
      </cc:Work>
    </rdf:RDF>
  </metadata>
  <g
     id="layer1"
     inkscape:groupmode="layer"
     inkscape:label="Layer 1">
    <g
       transform="matrix(0.01009629,0,0,-0.01009629,1.9802473,21.185501)"
       id="g38">
      <path
         id="path40"
         style="fill:#ffffff;fill-opacity:1;fill-rule:nonzero;stroke:none"
         d="m 280.426,1215.86 c 7.269,-7.27 19.672,-2.14 19.672,8.12 v 33.66 117.05 c 0,35.78 26.66,65.58 61.308,70.43 5.703,0.71 9.832,5.56 9.832,11.26 v 40.92 c -0.14,6.27 -5.273,11.4 -11.547,11.4 h -98.23 c -6.273,0 -11.551,-5.13 -11.551,-11.54 v -244.94 c 0,-3.71 1.567,-7.42 4.278,-10.13 l 26.238,-26.23" />
      <path
         id="path42"
         style="fill:#ffffff;fill-opacity:1;fill-rule:nonzero;stroke:none"
         d="m 655.391,1228.26 c 0,-10.26 12.402,-15.4 19.672,-8.12 l 28.085,27.95 v 9.55 239.52 c 0,6.41 -5.273,11.54 -11.546,11.54 h -95.664 c -6.418,0 -11.551,-5.13 -11.551,-11.54 v -40.92 c 0,-5.56 3.992,-10.56 9.551,-11.27 34.785,-4.99 61.453,-34.36 61.453,-70.28 v -117.05 -29.38" />
      <path
         id="path44"
         style="fill:#ffffff;fill-opacity:1;fill-rule:nonzero;stroke:none"
         d="m 524.648,1579.99 h 152.696 c 9.265,0 14.543,10.12 9.695,17.82 -18.676,30.37 -52.184,50.62 -90.391,50.62 H 356.414 c -38.207,0 -71.715,-20.25 -90.391,-50.62 -4.847,-7.7 0.426,-17.82 9.692,-17.82 h 155.121 c 6.414,0 11.551,-5.13 11.551,-11.55 v -122.76 c 0,-35.92 -26.809,-65.72 -61.309,-70.56 -5.703,-0.71 -9.84,-5.57 -9.84,-11.27 l 0.149,-287.42 c 0,-9.85 11.687,-15.12 19.101,-8.56 l 46.621,41.35 c 2.426,2.27 3.852,5.41 3.852,8.69 v 140.72 c 0,3.71 -1.715,6.98 -4.566,9.27 -14.399,11.69 -23.668,29.51 -23.668,49.61 0,39.79 36.359,71.01 77.707,62.45 25.093,-5.27 45.046,-26.23 49.183,-51.46 4.137,-24.39 -5.703,-46.92 -22.664,-60.6 -2.851,-2.29 -4.707,-5.56 -4.707,-9.13 v -138.86 c 0,-3.28 1.426,-6.41 3.848,-8.7 L 565,1067.87 c 7.41,-6.56 19.102,-1.29 19.102,8.56 v 287.56 c 0,5.71 -4.137,10.55 -9.84,11.26 -34.074,4.71 -61.164,34.51 -61.164,70.43 v 122.76 c 0,6.42 5.132,11.55 11.55,11.55" />
      <path
         id="path46"
         style="fill:#ffffff;fill-opacity:1;fill-rule:nonzero;stroke:none"
         d="M 1682.33,691.621 V 71.2891 h -3.99 c 0,0 -260.76,674.9409 -262.05,677.4999 -37.49,72.859 -113.2,119.617 -195.46,119.617 v -35.64 -22.09 c 0,-7.278 5.42,-13.547 12.69,-14.121 39.92,-3.567 76.56,-23.235 101.8,-53.75 6.12,-7.266 3.13,-18.391 -5.71,-22.102 -15.68,-6.555 -39.06,-16.254 -54.04,-22.812 -70.28,-30.36 -156.25,-67.282 -249.64,-91.821 l 29.8,109.36 c 2.42,9.133 -4.42,17.968 -13.83,17.968 H 986.727 L 806.801,71.2891 h -6.418 L 696.59,733.398 h -55.457 c -8.699,0 -15.403,-7.703 -14.117,-16.398 l 44.91,-286.289 c 0.285,-1.852 0.144,-3.699 -0.285,-5.551 L 582.965,71.2891 h -5.992 L 429.695,1000.29 c -0.57,3.85 0.856,7.7 3.707,10.41 l 25.094,22.24 11.688,10.26 c 4.277,3.85 10.836,3.85 15.257,0 l 65.153,-57.876 17.109,-15.121 c 9.555,-11.258 23.242,-17.527 37.641,-17.527 4.851,0 9.84,0.715 14.683,2.137 3.567,1.132 6.848,2.707 9.981,4.417 15.543,8.7 25.383,24.95 25.383,43.34 v 92.39 c 0,2.99 1.277,5.99 3.418,8.13 l 44.339,44.2 v -1.72 l 104.079,104.08 64.3,64.3 c 4.848,4.85 12.832,4.57 17.11,-0.85 54.176,-67.3 89.246,-150.71 96.804,-241.66 0.715,-8.71 1.286,-17.4 1.571,-26.1 0.14,-6.27 5.129,-11.26 11.406,-11.26 h 48.332 c 6.41,0 11.69,5.28 11.54,11.84 -1.85,80.97 -22.52,157.39 -57.59,225.12 -1.856,3.71 -3.708,7.41 -5.708,11.12 h 363.988 c 177.93,0 322.5,-144.29 323.35,-322.07 v -0.149 -1.14 -169.516 -97.664" />
      <path
         id="path48"
         style="fill:#9c3f1f;fill-opacity:1;fill-rule:nonzero;stroke:none"
         d="m 178.629,1487.03 v -141.57 c 0,-10.26 -12.406,-15.4 -19.535,-8.12 l -58.313,58.16 -12.5466,12.55 c -4.418,4.56 -4.418,11.83 0,16.25 l 70.8596,70.86 c 7.129,7.27 19.535,2.14 19.535,-8.13" />
      <path
         id="path50"
         style="fill:#9c3f1f;fill-opacity:1;fill-rule:nonzero;stroke:none"
         d="m 864.828,1424.3 c 4.418,-4.42 4.418,-11.69 0,-16.25 l -70.859,-70.86 c -7.129,-7.13 -19.531,-1.99 -19.531,8.27 v 141.57 c 0,10.27 12.402,15.4 19.531,8.13 l 70.859,-70.86" />
      <path
         id="path52"
         style="fill:#1f1916;fill-opacity:1;fill-rule:nonzero;stroke:none"
         d="m 178.629,1345.46 v 141.57 c 0,10.27 -12.406,15.4 -19.535,8.13 L 88.2344,1424.3 c -4.418,-4.42 -4.418,-11.69 0,-16.25 l 12.5466,-12.55 58.313,-58.16 c 7.129,-7.28 19.535,-2.14 19.535,8.12 m 192.609,110.92 v 40.92 c -0.14,6.27 -5.273,11.4 -11.547,11.4 h -98.234 c -6.269,0 -11.547,-5.13 -11.547,-11.54 v -244.94 c 0,-3.71 1.567,-7.42 4.278,-10.13 l 26.238,-26.23 c 7.269,-7.27 19.672,-2.14 19.672,8.12 v 33.66 117.05 c 0,35.78 26.66,65.58 61.308,70.43 5.703,0.71 9.832,5.56 9.832,11.26 m 306.106,123.61 c 9.265,0 14.539,10.12 9.695,17.82 -18.676,30.37 -52.184,50.62 -90.391,50.62 H 356.414 c -38.211,0 -71.715,-20.25 -90.391,-50.62 -4.847,-7.7 0.426,-17.82 9.696,-17.82 h 155.117 c 6.414,0 11.551,-5.13 11.551,-11.55 v -122.76 c 0,-35.92 -26.809,-65.72 -61.309,-70.56 -5.703,-0.71 -9.84,-5.57 -9.84,-11.27 l 0.149,-287.42 c 0,-9.85 11.687,-15.12 19.101,-8.56 l 46.621,41.35 c 2.426,2.27 3.852,5.41 3.852,8.69 v 140.72 c 0,3.71 -1.715,6.99 -4.566,9.27 -14.399,11.69 -23.668,29.51 -23.668,49.61 0,39.79 36.359,71.01 77.707,62.45 25.093,-5.27 45.046,-26.23 49.183,-51.46 4.137,-24.39 -5.703,-46.92 -22.664,-60.6 -2.851,-2.28 -4.707,-5.56 -4.707,-9.13 v -138.86 c 0,-3.28 1.426,-6.41 3.848,-8.7 L 565,1067.87 c 7.41,-6.56 19.102,-1.29 19.102,8.56 v 287.56 c 0,5.71 -4.137,10.55 -9.84,11.26 -34.074,4.71 -61.164,34.51 -61.164,70.43 v 122.76 c 0,6.42 5.132,11.55 11.55,11.55 h 152.696 m 25.804,-331.91 v 9.56 239.52 c 0,6.41 -5.273,11.54 -11.546,11.54 h -95.664 c -6.418,0 -11.551,-5.13 -11.551,-11.54 v -40.92 c 0,-5.56 3.992,-10.56 9.551,-11.27 34.785,-4.99 61.453,-34.36 61.453,-70.28 v -117.05 -29.38 c 0,-10.26 12.402,-15.4 19.672,-8.12 l 28.085,27.94 m 161.68,159.97 c 4.418,4.56 4.418,11.83 0,16.25 l -70.859,70.86 c -7.129,7.27 -19.531,2.14 -19.531,-8.13 v -141.57 c 0,-10.26 12.402,-15.4 19.531,-8.27 l 70.859,70.86 m 683.062,-1196.472 -16.4,42.633 -151.98,394.348 c -2.85,7.562 -11.26,11.132 -18.68,8.132 -17.39,-7.132 -36.35,-15.25 -57.02,-24.242 -28.38,-12.25 -59.31,-25.519 -92.25,-38.777 -9.41,-3.703 -11.98,-15.684 -5.13,-23.094 20.1,-21.957 43.2,-41.348 68.57,-57.316 46.77,-31.653 82.98,-74.133 106.65,-122.75 20.24,-41.492 31.22,-87.543 31.22,-135.012 0,-48.621 -11.12,-95.68 -32.22,-138.16 -4.7,-9.41 2.14,-20.3908 12.69,-20.3908 h 13.4 c 3.42,0 6.56,1.1524 9.13,3.2808 l 132.02,111.348 M 1682.33,71.2891 v 620.3319 97.664 169.516 1.14 0.149 c -0.85,177.78 -145.42,322.07 -323.35,322.07 H 994.992 c 2,-3.71 3.852,-7.41 5.708,-11.12 35.07,-67.73 55.74,-144.15 57.59,-225.12 0.15,-6.56 -5.13,-11.84 -11.54,-11.84 h -48.332 c -6.277,0 -11.266,4.99 -11.406,11.26 -0.285,8.7 -0.856,17.39 -1.571,26.1 -7.558,90.95 -42.628,174.36 -96.804,241.66 -4.278,5.42 -12.262,5.7 -17.11,0.85 l -64.3,-64.3 -104.079,-104.08 v 1.72 l -44.339,-44.2 c -2.141,-2.14 -3.418,-5.14 -3.418,-8.13 v -92.39 c 0,-18.39 -9.84,-34.64 -25.383,-43.34 -3.133,-1.71 -6.414,-3.285 -9.981,-4.417 -4.843,-1.422 -9.832,-2.137 -14.683,-2.137 -14.399,0 -28.086,6.269 -37.641,17.527 l -17.109,15.121 -65.153,57.876 c -4.421,3.85 -10.98,3.85 -15.257,0 l -11.688,-10.26 -25.094,-22.24 c -2.851,-2.71 -4.277,-6.56 -3.707,-10.41 L 576.973,71.2891 h 5.992 L 671.641,425.16 c 0.429,1.852 0.57,3.699 0.285,5.551 L 627.016,717 c -1.286,8.695 5.418,16.398 14.117,16.398 H 696.59 L 800.383,71.2891 h 6.418 L 986.727,733.398 h 55.173 c 9.41,0 16.25,-8.835 13.83,-17.968 l -29.8,-109.36 c 93.39,24.539 179.36,61.461 249.64,91.821 14.98,6.558 38.36,16.257 54.04,22.812 8.84,3.711 11.83,14.836 5.71,22.102 -25.24,30.515 -61.88,50.183 -101.8,53.75 -7.27,0.574 -12.69,6.843 -12.69,14.121 v 22.09 35.64 c 82.26,0 157.97,-46.758 195.46,-119.617 1.29,-2.559 262.05,-677.4999 262.05,-677.4999 h 3.99 m 309.81,302.6799 c 11.98,-3.418 22.1,9.41 16.4,20.39 l -227.97,442.973 c -6.85,13.254 -26.95,8.41 -26.95,-6.559 v -41.488 -97.664 c 0,-150.41 100.94,-277.73 238.52,-317.652 m 139.72,-63.438 c 4.99,-9.551 -1.99,-20.82 -12.54,-20.82 h -35.07 c -122.33,0 -231.97,54.891 -305.82,141.43 -8.41,9.98 -24.81,3.711 -24.81,-9.411 V 14.2617 C 1753.62,6.42188 1747.21,0 1739.36,0 h -100.23 c -5.84,0 -11.11,3.55859 -13.25,9.12891 L 1574.98,141.148 1441.96,28.9492 c -2.57,-2.1406 -5.85,-3.289 -9.12,-3.289 h -187.63 c -12.69,0 -19.11,15.2617 -10.12,24.2382 l 57.45,57.4606 1.86,2.282 c 85.54,123.757 48.19,271.879 -58.46,343.89 -41.2,26.09 -77.56,59.731 -107.07,98.938 -3.71,4.84 -9.84,6.851 -15.68,4.992 -32.22,-10.551 -65.73,-20.242 -100.23,-28.082 -5.13,-1.277 -9.27,-5.141 -10.55,-10.129 L 864.113,10.5586 C 862.402,4.28125 856.699,0 850.281,0 h -98.656 c -6.988,0 -12.973,5.14063 -14.117,11.9805 L 711.422,178.219 c -2.43,15.39 -24.098,16.402 -27.805,1.281 L 641.273,10.8398 C 639.563,4.42188 633.859,0 627.445,0 h -99.093 c -6.981,0 -12.973,5.14063 -14.11,11.9805 L 378.656,866.563 c -6.418,25.949 -10.691,52.746 -12.691,80.117 l -1.285,8.269 c -8.977,-2.847 -18.676,-3.133 -28.227,-0.426 -22.098,6.278 -36.355,27.95 -36.355,50.897 v 85.26 c 0,2.99 -1.285,5.99 -3.422,8.13 l -246.2229,246.22 -35.9297,35.93 c -11.54684,11.55 -16.67965,27.8 -13.683556,44.63 1.855466,10.26 7.550786,19.66 14.968756,27.09 L 249.91,1683.93 c 29.801,22.38 66.582,35.78 106.504,35.78 h 240.234 c 39.918,0 76.704,-13.4 106.5,-35.78 l 235.387,-232.54 c 9.695,-9.7 14.688,-22.39 14.688,-35.22 0,-12.83 -4.993,-25.51 -14.688,-35.21 -4.277,-4.28 -4.422,-10.98 -0.566,-15.54 2.136,-2.57 4.129,-5.14 6.269,-7.71 2.137,-2.7 5.418,-4.27 8.84,-4.27 h 405.902 c 172.37,0 319.08,-111.06 372.68,-265.33 l 0.72,-1.57 399.48,-776.009" />
      <path
         id="path54"
         style="fill:#9c3f1f;fill-opacity:1;fill-rule:nonzero;stroke:none"
         d="m 703.148,1257.64 v -9.57 l -28.085,-27.93 c -7.27,-7.28 -19.672,-2.14 -19.672,8.12 v 29.38 117.05 c 0,35.92 -26.668,65.29 -61.453,70.28 -5.559,0.71 -9.551,5.71 -9.551,11.27 v 40.92 c 0,6.41 5.133,11.54 11.551,11.54 h 95.664 c 6.273,0 11.546,-5.13 11.546,-11.54 v -239.52" />
      <path
         id="path56"
         style="fill:#9c3f1f;fill-opacity:1;fill-rule:nonzero;stroke:none"
         d="m 371.238,1497.3 v -40.92 c 0,-5.7 -4.129,-10.55 -9.832,-11.26 -34.648,-4.85 -61.308,-34.65 -61.308,-70.43 v -117.05 -33.66 c 0,-10.26 -12.403,-15.39 -19.672,-8.12 l -26.238,26.23 c -2.711,2.71 -4.278,6.42 -4.278,10.13 v 244.94 c 0,6.41 5.278,11.54 11.551,11.54 h 98.23 c 6.274,0 11.407,-5.13 11.547,-11.4" />
      <path
         id="path58"
         style="fill:#ffffff;fill-opacity:1;fill-rule:nonzero;stroke:none"
         d="m 1547.89,211.578 -16.4,42.633 -151.98,394.348 c -2.85,7.562 -11.26,11.132 -18.68,8.132 -17.39,-7.132 -36.35,-15.25 -57.02,-24.242 -28.38,-12.25 -59.31,-25.519 -92.25,-38.777 -9.41,-3.703 -11.98,-15.684 -5.13,-23.094 20.1,-21.957 43.2,-41.348 68.57,-57.316 46.77,-31.653 82.98,-74.133 106.65,-122.75 20.24,-41.492 31.22,-87.543 31.22,-135.012 0,-48.621 -11.12,-95.68 -32.22,-138.16 -4.7,-9.41 2.14,-20.3908 12.69,-20.3908 h 13.4 c 3.42,0 6.56,1.1524 9.13,3.2808 l 132.02,111.348" />
      <path
         id="path60"
         style="fill:#beb7b6;fill-opacity:1;fill-rule:nonzero;stroke:none"
         d="m 582.965,71.2891 h -5.992 L 488.832,627.27 c 44.984,-45.489 102.504,-78.489 166.938,-93.571 l 16.156,-102.988 v 0 c 0.101,-0.652 0.148,-1.301 0.148,-1.949 0,-1.203 -0.156,-2.403 -0.433,-3.602 L 582.965,71.2891" />
      <path
         id="path62"
         style="fill:#1f1a18;fill-opacity:1;fill-rule:nonzero;stroke:none"
         d="m 582.965,71.2891 h -5.992 L 488.832,627.27 v 0 L 576.973,71.2891 h 5.992 L 671.641,425.16 c 0.277,1.199 0.433,2.399 0.433,3.602 0,0.648 -0.047,1.297 -0.148,1.949 0.289,-1.84 0.144,-3.711 -0.281,-5.551 L 582.965,71.2891" />
      <path
         id="path64"
         style="fill:#beb7b6;fill-opacity:1;fill-rule:nonzero;stroke:none"
         d="m 1406.74,96.9492 h -13.4 c -8.22,0 -14.19,6.6718 -14.2,14.0708 0,2.089 0.47,4.25 1.51,6.32 21.1,42.48 32.22,89.539 32.22,138.16 v 0 0 0 c 0,47.469 -10.98,93.52 -31.22,135.012 -23.67,48.617 -59.88,91.097 -106.65,122.75 -25.37,15.968 -48.47,35.359 -68.57,57.316 -2.62,2.832 -3.86,6.344 -3.87,9.801 -0.01,5.57 3.19,11.012 9,13.293 32.94,13.258 63.87,26.527 92.25,38.777 20.67,8.992 39.63,17.11 57.02,24.242 1.78,0.719 3.61,1.059 5.42,1.059 5.71,0 11.09,-3.441 13.26,-9.191 l 151.98,-394.348 16.4,-42.633 -132.02,-111.348 c -2.57,-2.1284 -5.71,-3.2808 -9.13,-3.2808" />
      <path
         id="path66"
         style="fill:#ffffff;fill-opacity:1;fill-rule:nonzero;stroke:none"
         d="m 1992.14,373.969 c 11.98,-3.418 22.1,9.41 16.4,20.39 l -227.97,442.973 c -6.85,13.254 -26.95,8.41 -26.95,-6.559 v -41.488 -97.664 c 0,-150.41 100.94,-277.73 238.52,-317.652" />
      <path
         id="path68"
         style="fill:#beb7b6;fill-opacity:1;fill-rule:nonzero;stroke:none"
         d="m 1996.09,373.41 c -1.28,0 -2.6,0.18 -3.95,0.559 -137.58,39.922 -238.52,167.242 -238.52,317.652 v 97.664 41.488 c 0,8.957 7.2,14.29 14.44,14.29 4.87,0 9.76,-2.407 12.51,-7.731 l 227.97,-442.973 c 1.13,-2.168 1.63,-4.418 1.63,-6.589 0,-7.59 -6.22,-14.36 -14.08,-14.36" />
      <path
         id="path70"
         style="fill:#9c3f1f;fill-opacity:1;fill-rule:nonzero;stroke:none"
         d="M 1682.33,789.285 V 960.09 c -0.85,177.78 -145.42,322.07 -323.35,322.07 H 994.992 c 2,-3.71 3.848,-7.41 5.708,-11.12 35.07,-67.73 55.74,-144.15 57.59,-225.12 0.15,-6.56 -5.13,-11.84 -11.54,-11.84 h -48.332 c -6.277,0 -11.266,4.99 -11.406,11.26 -0.285,8.7 -0.856,17.39 -1.571,26.1 -7.105,85.6 -38.82,164.32 -87.66,229.41 -33.582,-60.68 -49.644,-132.41 -41.152,-208.4 17.75,-158.868 145.201,-287.106 303.991,-305.614 36.05,-4.207 71.15,-2.852 104.6,3.223 -10.23,3.254 -20.82,5.527 -31.7,6.496 -7.27,0.574 -12.69,6.843 -12.69,14.121 v 22.097 35.633 c 50.38,0 98.27,-17.605 136.45,-47.937 75.74,36.992 166.85,3.066 197.28,-75.637 47.47,-122.73 96.68,-250.082 127.77,-330.57 v 277.359 97.664" />
    </g>
  </g>
</svg>
